<?xml version="1.0" encoding="utf-8"?>
<!-- Generator: Adobe Illustrator 16.0.3, SVG Export Plug-In . SVG Version: 6.00 Build 0)  -->
<!DOCTYPE svg PUBLIC "-//W3C//DTD SVG 1.1//EN" "http://www.w3.org/Graphics/SVG/1.1/DTD/svg11.dtd">
<svg version="1.1" id="Capa_1" xmlns="http://www.w3.org/2000/svg" xmlns:xlink="http://www.w3.org/1999/xlink" x="0px" y="0px"
	 width="738.786px" height="455.306px" viewBox="0 0 738.786 455.306" enable-background="new 0 0 738.786 455.306"
	 xml:space="preserve">
<g>
	<g>
		<path fill="#ED1C24" d="M223.597,138.388c4.957-1.652,5.507-1.102,1.656,2.199c-3.852,3.301-26.418,32.985-38.527,71.512
			c-5.418,17.281-6.329,53.832-7.165,79.242c-1.015,31.319-4.429,66.73-15.062,93.184c-19.262,47.875-54.828,61.453-88.945,61.453
			c-34.114,0-55.535-19.813-65.473-41.281C-1.311,380.024-3.427,357.38,5.679,333.72c8.273-21.469,34.668-43.477,63.832-43.477
			c35.242,0,45.676,24.762,47.32,41.82c1.641,17.059-11.559,26.414-19.262,31.914c4.95,5.508,15.407,11.527,25.86,14.863
			c12.132-17.59,20.91-67.688,24.215-107.313c3.308-39.625,16.515-76.332,32.468-99.055
			C198.28,146.61,223.597,138.388,223.597,138.388L223.597,138.388z M13.381,358.478c-1.649,31.918,21.461,61.086,52.832,61.086
			c31.367,0,48.426-23.66,48.426-23.66c-8.461-4.84-16.391-10.559-23.661-17.059c-11.554-10.457-16.503-13.203-14.308-23.656
			c2.195-10.453,7.16-6.605,7.16-15.961s-9.41-28.852-28.629-27.527C39.249,312.802,15.03,326.563,13.381,358.478L13.381,358.478z
			 M13.381,358.478"/>
	</g>
	<path fill="#ED1C24" d="M145.456,215.951c6.672,4.246,9.355-0.555,7.152-12.133c-2.203-11.582-19.812-18.684-31.89-15.93
		c-12.078,2.754-20.387,12.652-19.836,33c0.551,20.344,30.465,47.813,59.449,53.383c28.617,5.5,87.5,2.203,117.766-22.567
		c30.265-24.769,38.519-56.674,34.121-105.655c-4.395-48.98-53.383-63.285-76.492-63.285c-23.114,0-39.075,7.703-61.082,6.066
		c-22.008-1.636-26.418-11.007-29.168-12.132c-2.747-1.121-2.754,0.554-4.957,5.504c-2.2,4.949-1.114,11.027-14.34,20.394
		c-13.223,9.367-13.203,8.25-18.715,9.356c-5.508,1.101-8.801,0.55-4.399,5.5c4.407,4.949,13.762,11.558,47.321,11.558
		c33.558,0,67.164-9.363,82.562-10.465c15.395-1.105,48.973,10.457,48.973,56.129c0,45.672-24.199,83.648-85.832,83.648
		c-61.633,0-64.387-19.234-66.039-33.02C128.4,211.521,139.4,212.099,145.456,215.951L145.456,215.951z M145.456,215.951"/>
	<path fill="#ED1C24" d="M150.959,388.747c24.762,6.602,92.449,27.512,167.289,18.156s133.727-40.723,150.785-52.277
		c17.055-11.559,38.52,15.406,14.859,30.27c-23.656,14.863-79.797,68.234-179.973,68.234c-100.18,0-181.578-57.23-181.578-57.23
		L150.959,388.747z M150.959,388.747"/>
	<path fill="#ED1C24" d="M183.424,381.224c2.203-4.035,17.98-27.902,20.176-39.254c2.195-11.352,1.105-34.851,0.371-38.156
		c-0.735-3.309-2.203-5.867,2.566-5.867h33.02c3.668,0,6.968-2.203,9.906-1.469c2.933,0.734,6.605,8.07,3.637,14.305
		c-2.965,6.238-8.805,4.77-12.84,3.641c-4.035-1.129-17.242,0-17.242,0s-0.368,16.141-2.2,27.516s-9.543,26.047-11.008,28.25
		c-1.46,2.203-2.199,4.398,6.602,4.398h16.879c0,0-1.102-11.004,4.031-15.039c5.133-4.031,11.485,4.605,14.676,10.641
		c3.305,6.238,6.234,19.809-9.535,19.809c-15.774,0-55.035-2.203-57.602-3.641C182.295,384.919,183.424,381.224,183.424,381.224
		L183.424,381.224z M183.424,381.224"/>
	<path fill="#ED1C24" d="M219.381,329.86c0,0,17.59-4.766,16.875,3.672c-0.715,8.438-2.567,14.672-6.969,14.672
		c-4.406,0-6.066-1.648-12.293-1.285C210.771,347.282,219.381,329.86,219.381,329.86L219.381,329.86z M219.381,329.86"/>
	<path fill="#ED1C24" d="M265.144,390.138c-3.852,0,1.929-2.75,2.203-11.277c0.273-8.531,3.851-75.121,3.578-75.945
		c-0.274-0.824,2.75-0.824,4.676,0.824c1.929,1.652,6.328,3.301,9.636,1.105c3.305-2.195,11.278-6.332,23.938-6.332
		c12.66,0,24.762,11.008,23.937,30.815c-0.828,19.806-11.277,27.79-22.57,27.79c-10.176,0-14.855-4.676-17.055-9.898
		c-2.203-5.227,0.278-12.133,5.5-11.836c2.754,0,0.282,1.102,4.957,5.227c3.641,3.242,12.653,3.582,14.032-7.703
		c1.378-11.281,0.273-20.625-13.481-21.188c-11.308-0.445-18.168,6.188-18.715,15.668c-0.547,9.355-3.297,48.147-3.297,52.832
		c0,4.684,0.825,7.977,1.922,8.801c1.098,0.824,0.551,0.824-2.195,1.379C279.459,390.95,265.144,390.138,265.144,390.138
		L265.144,390.138z M265.144,390.138"/>
	<path fill="#ED1C24" d="M381.569,313.356c1.098-2.938,2.566-10.278,3.301-13.578c0.734-3.301,0-5.137-2.938-3.301
		c-2.938,1.84-4.77,3.301-15.411,2.566c-10.64-0.734-25.312,5.141-27.144,19.813c-1.832,14.676,8.437,22.379,22.008,23.477
		c13.57,1.098,21.652,5.141,19.449,15.773s-8.074,11.738-14.676,11.738c-6.598,0-13.949-2.566-15.406-8.438
		c-1.457-5.875,5.867-7.336,8.437-5.875c2.575,1.465,4.036-0.734,0.364-5.133c-3.668-4.395-12.84-4.402-20.547,0.367
		c-7.703,4.766-7.328,18.805,3.308,26.781c10.27,7.703,26.047,9.172,39.254,1.82c13.207-7.352,13.195-18.406,12.836-29.348
		c-0.363-11.371-11.738-18.348-23.113-19.078c-9.328-0.609-18.707-2.566-16.504-12.473c1.758-7.887,13.574-7.703,17.973-6.238
		C375.604,313.134,378.588,313.513,381.569,313.356L381.569,313.356z M381.569,313.356"/>
	<path fill="#ED1C24" d="M404.28,361.41c-0.363-3.296-2.934-61.632-3.301-63.464c-0.363-1.832,0.734-1.82,4.035-3.641
		s4.77-3.297,6.234-6.234c1.469-2.938,2.938-1.82,2.938,2.566s4.406,64.91,4.77,66.402s0,3.668-2.203,4.038
		c-2.203,0.372-7.703,2.567-9.902,2.931C404.655,364.372,404.28,361.41,404.28,361.41L404.28,361.41z M404.28,361.41"/>
	<path fill="#ED1C24" d="M427.393,298.31c-4.445,0.894-5.133,5.875-3.301,10.273c1.832,4.395,12.473,3.668,16.145,0
		c3.668-3.673,2.934-11.738-1.469-12.473C434.362,295.376,429.229,297.931,427.393,298.31L427.393,298.31z M427.393,298.31"/>
	<path fill="#ED1C24" d="M428.127,324.16c-1.652,1.923-0.734,6.173,1.82,7.497s8.801-1.055,10.633-4.563
		c1.832-3.504,1.469-7.207-1.098-7.43C436.917,319.438,431.065,320.751,428.127,324.16L428.127,324.16z M428.127,324.16"/>
	<path fill="#ED1C24" d="M564.237,266.024c0,9.355-6.066,22.563-14.855,22.563c-8.793,0-14.336-12.652-13.73-20.91
		s4.402-19.262,13.758-19.262C558.182,248.415,564.237,256.677,564.237,266.024L564.237,266.024z M548.827,235.208
		c-11.523,0.402-25.859,10.461-26.41,32.469c-0.555,22.008,12.652,35.219,28.613,33.57s25.867-16.512,26.41-35.223
		C577.987,247.317,564.768,234.657,548.827,235.208L548.827,235.208z M548.827,235.208"/>
	<path fill="#ED1C24" d="M597.807,235.763c0,0,3.301,1.82,0.547,11.141c-2.754,9.324-10.453,45.566-10.453,45.566
		s-0.551,1.102,4.402,1.102h37.418c10.457,0,15.961-5.227,14.309-14.559c-1.648-9.328-10.73-9.906-15.406-7.43
		c-2.809,1.484-1.648,1.035,0.273,1.93c1.734,0.832,2.816,2.613,2.754,4.535c0,1.93-1.648,5.09-7.984,5.09h-19.262
		c0,0,4.957-25.313,6.609-33.016c1.648-7.707,3.852-12.133,4.949-13.207s2.789-2.203-1.098-2.203h-14.859
		C597.667,234.657,597.807,235.763,597.807,235.763L597.807,235.763z M597.807,235.763"/>
	<path fill="#ED1C24" d="M663.292,291.614c-3.195,0.418-3.301-3.036-3.301-3.036s-4.676,0-6.605,4.407
		c-1.93,4.402-0.551,10.457,6.879,10.73s15.137-7.703,19.535-15.406c4.398-7.707,4.957-15.41,11.281-17.887
		c3.652-1.457,7.813-0.711,10.734,1.926l10.176-9.355c0,0-11.004-3.301-20.91-2.477s-13.484,8.531-15.68,15.41
		S669.62,290.79,663.292,291.614L663.292,291.614z M663.292,291.614"/>
	<g>
		<path fill="#ED1C24" d="M670.17,289.435c-3.852-3.852-6.066-11.004-6.328-14.301c-0.258-3.301,2.75-1.652,4.398,1.375
			c1.652,3.026,11.836,0.824,11.836,0.824c0.609,2.332,1.738,4.492,3.301,6.327c2.473,2.755,12.133,2.204,14.309,0.274
			c2.18-1.93,1.371,4.676,4.125,8.527c2.754,3.855,7.977,6.07,12.383,4.957c4.402-1.109,2.473,3.301-3.035,5.23
			c-5.508,1.929-11.523,5.223-20.359,0c-8.832-5.223-3.578-8.258-9.098-11.285S670.17,289.435,670.17,289.435L670.17,289.435z
			 M670.17,289.435"/>
		<path fill="#ED1C24" d="M699.338,267.677c0,0-6.066,21.733-10.18,34.668c-3.559,11.156-4.402,30.815,4.398,42.652
			c8.801,11.836,25.594,12.102,33.57,7.977s13.207-11.828,11.285-23.938c-1.926-12.108-8.258-18.433-17.066-18.433
			s-11.828,6.328-12.102,12.379c-0.273,6.054,5.5,10.179,8.527,11.008c3.027,0.824,1.379-1.652-0.824-3.855
			s-1.656-9.099,3.035-10.453c4.688-1.353,11.273,7.152,7.703,15.961c-3.574,8.809-15.688,10.453-22.84,3.855
			c-7.152-6.602-9.355-18.988-7.434-32.477c1.926-13.485,4.68-24.762,6.609-29.723s8.801-12.383,10.18-13.484
			c1.375-1.105,0.551-1.922-4.953-1.922C703.749,261.892,699.338,267.677,699.338,267.677L699.338,267.677z M699.338,267.677"/>
		<path fill="#ED1C24" d="M588.999,110.841c-20.91-31.363-55.027-56.68-105.105-70.437c-50.078-13.758-89.172-6.067-134.829-13.758
			C303.409,18.954,268.17,4.63,261.019,1.329c-7.153-3.296-6.606,0,0.55,8.805c7.16,8.801,13.762,11.563,23.66,15.414l0.407,0.703
			c-0.125,7.887,0.117,24.266,3.824,34.403c-8.508-5.934-17.691-15.379-20.727-19.153c-4.402-5.504-7.703-6.066-6.605-2.203
			c1.098,3.863,2.754,12.66,12.66,26.418c9.906,13.762,21.465,22.012,62.188,26.414c40.722,4.406,64.91-4.949,120.511-2.754
			c55.605,2.196,82,9.907,106.766,24.77c24.77,14.859,39.625,36.316,42.926,46.769c3.301,10.454,7.703,7.157,7.703,3.852
			S609.913,142.208,588.999,110.841L588.999,110.841z M588.999,110.841"/>
	</g>
	<path fill="#ED1C24" d="M514.709,366.731c-0.605-3.238,10.453-22.559,59.453-38.52c48.996-15.961,83.105-2.203,88.043,36.871
		c4.941,39.074-36.316,64.387-63.281,66.582S524.065,415.16,514.709,366.731L514.709,366.731z M473.987,385.442
		c0,0,21.465,36.871,70.438,53.383s94.105,6.066,114.465-21.461c20.355-27.531,23.109-63.286,8.254-84.204
		c-14.855-20.913-40.723-29.722-79.793-24.761c-39.074,4.961-95.207,37.977-95.207,37.977L473.987,385.442z M473.987,385.442"/>
	<path fill="#ED1C24" d="M464.631,361.231c-4.953-17.059-10.457-81.449,12.656-134.824c23.113-53.379,59.984-96.856,115.016-102.356
		c55.035-5.504,93.004,36.317,88.598,63.836c-4.402,27.516-24.762,41.82-54.48,41.82s-50.078-14.281-49.52-34.117
		c0.605-21.457,12.656-33.019,30.266-35.793c17.609-2.769,22.559,14.313,20.91,22.563s-8.801,13.758-18.707,12.133
		s-8.809-12.133-5.504-14.856c3.309-2.727,6.602-2.758,9.906-2.203c3.309,0.551-1.656-6.066-6.605-6.066
		s-18.199,3.285-19.262,19.812c-1.102,17.055,22.563,23.109,36.871,19.258c14.313-3.852,22.563-17.59,22.563-32.465
		s-20.914-42.375-51.176-39.074c-30.266,3.301-56.133,24.765-75.945,75.39c-19.813,50.629-19.266,95.211-12.664,138.129
		C503.155,381.035,464.631,361.231,464.631,361.231L464.631,361.231z M464.631,361.231"/>
	<path fill="#ED1C24" d="M138.722,440.485v-0.082c-0.024-8.211,6.613-14.883,14.82-14.906c8.211-0.023,14.883,6.609,14.906,14.82
		v0.086c0.024,8.207-6.609,14.879-14.82,14.902C145.42,455.328,138.745,448.696,138.722,440.485L138.722,440.485z M166.717,440.403
		v-0.086c0.133-7.258-5.649-13.25-12.907-13.383c-7.257-0.129-13.25,5.648-13.378,12.91c-0.004,0.184-0.004,0.371,0,0.559v0.082
		c-0.129,7.259,5.648,13.25,12.91,13.383c7.258,0.129,13.246-5.648,13.379-12.91C166.726,440.774,166.726,440.587,166.717,440.403
		L166.717,440.403z M147.409,432.368h7.281c3.586,0,6.231,1.621,6.231,5.121c0.101,2.191-1.313,4.168-3.418,4.781l3.926,5.543h-4.52
		l-3.328-4.852h-2.391v4.852h-3.781V432.368z M154.429,439.88c1.703,0,2.644-0.855,2.644-2.137s-1.023-2.137-2.644-2.137h-3.246
		v4.246L154.429,439.88z M154.429,439.88"/>
</g>
</svg>
