<?xml version="1.0" encoding="utf-8"?>
<!-- Generator: Adobe Illustrator 16.0.3, SVG Export Plug-In . SVG Version: 6.00 Build 0)  -->
<!DOCTYPE svg PUBLIC "-//W3C//DTD SVG 1.1//EN" "http://www.w3.org/Graphics/SVG/1.1/DTD/svg11.dtd">
<svg version="1.1" id="Capa_1" xmlns="http://www.w3.org/2000/svg" xmlns:xlink="http://www.w3.org/1999/xlink" x="0px" y="0px"
	 width="920.01px" height="455.371px" viewBox="0 0 920.01 455.371" enable-background="new 0 0 920.01 455.371"
	 xml:space="preserve">
<g>
	<path fill="#ED1C24" d="M188.855,353.811c-2.477,0.242-3.465-0.25-1.735,1.234c1.735,1.48,5.453,5.945,14.867,7.438
		c9.414,1.488,16.852-5.207,16.852-5.207s9.168,9.371,28,9.371c23.789,0,30.727-20.066,31.965-29.234
		c1.242-9.172-2.481-19.082-11.153-23.789c-8.667-4.707-16.105-0.711-18.582,0.715c-2.472,1.426-3.472,1.98,0,2.973
		c3.473,0.988,5.707,5.945,5.707,12.391s-8.179,10.16-15.117,5.949c-6.937-4.215-5.949-18.582-3.965-30.477
		c7.438,0.711,19.825,0.988,27.012-7.93c7.188-8.922,5.945-19.082,6.418-21.313c0.469-2.235-0.242-3.965-1.984-1.242
		c-1.739,2.727-7.18,5.207-13.875,5.207c-6.696,0-18.332-1.242-17.344-10.902c0.992-9.664,11.566-11.152,18.746-9.914
		c7.184,1.242,11.359,3.758,13.223,5.578c2.058,2.016,2.222,0.871,2.472-0.621c0.164-0.977,1.243-29.234,1.243-31.219
		c0-1.98-1.243-2.73-2.485-1.738c-1.238,0.992-4.453,2.973-6.187,2.234c-1.735-0.742-6.696-3.719-16.36-3.719
		c-9.66,0-17.113,2.727-21.304,5.449c-4.192,2.723-7.93,0.5-11.411-1.73c-3.48-2.234-13.374-3.227-16.847-2.234
		c-3.473,0.992-4.957,1.242-0.992,3.223c3.965,1.984,6.418,9.172,6.418,17.113c0,0-1.239,70.121-1.489,84.738
		S191.335,353.545,188.855,353.811L188.855,353.811z M188.855,353.811"/>
	<path fill="#ED1C24" d="M333.813,219.99c-14.125,1.735-20.817,5.95-29.735,13.875c-3.465-4.711-9.414-6.415-16.109-6.195
		c-6.695,0.223-9.164,2.973-10.402,3.715c-1.243,0.742-1.243,1.242,0.492,1.492c1.73,0.246,7.922,5.945,7.922,17.34
		s-1.735,86.229-1.985,91.926c-0.25,5.699-2.222,13.137-6.937,16.359c-1.828,1.246-1.735,2.723,1.98,2.973
		c3.719,0.25,15.86-0.992,22.82-7.68c12.641,4.957,20.321,4.957,23.79,4.207c3.464-0.75,4.953-1.484,2.23-3.465
		c-2.723-1.984-10.16-4.957-10.16-19.082s0.496-69.879,0.988-74.828c0.492-4.949,7.203-10.41,13.621-9.168
		c6.418,1.237,10.403,7.68,8.672,16.348c-1.734,8.672-4.707,13.137-10.164,13.387c-5.453,0.25-5.203-1.492-6.195-2.727
		c-0.992-1.234-2.973,1.234-3.465,11.895c-0.492,10.66,9.172,17.113,18.832,16.852c9.66-0.267,32.457-6.699,34.937-43.613
		C377.429,226.686,347.938,218.252,333.813,219.99L333.813,219.99z M333.813,219.99"/>
	<path fill="#ED1C24" d="M395.011,294.568c1.711-0.57,1.492-1.234,0-2.223c-1.488-0.992-4.703-3.723-14.617-1.742
		c-9.91,1.984-18.118,13.137-15.36,26.762c2.348,11.758,16.352,30.977,50.051,18.09c33.699-12.883,39.395-49.805,26.27-67.648
		c-13.129-17.84-25.528-25.52-23.047-35.18c2.48-9.66,15.359-9.418,20.562-6.418c5.207,3.004,6.418,5.453,7.438,6.418
		c1.019,0.961,1.484-0.715,1.234-3.473c-0.25-2.762,0.5-40.141,0.5-41.872c0-1.734,0-2.73-1.734-1.238
		c-1.731,1.488-12.121,8.418-13.383,8.918c-1.262,0.5-2.973-0.5-9.172,0c-6.195,0.5-22.047,1.984-34.227,19.324
		c-12.179,17.344-8.918,37.665,3.715,52.532c12.637,14.867,24.289,27.512,18.34,36.922c-5.945,9.414-11.152,10.902-17.347,5.453
		C388.039,303.748,392.789,295.338,395.011,294.568L395.011,294.568z M395.011,294.568"/>
	<path fill="#ED1C24" d="M449.941,318.607c-1.426,0.832-0.329,1.652,1.98,1.652c2.313,0,18.504-2.973,27.098-16.848
		c7.93,3.629,14.867,3.301,18.832,1.316c3.965-1.98,3.965-2.973,4.988-3.965c1.027-0.988,0.992-0.328-1.324-2.973
		s-7.324-7.602-7.965-24.777s0.641-66.406,1.355-78.301c0.711-11.894,2.309-18.832,5.945-23.457
		c3.637-4.629,5.285-7.269,6.938-8.258c1.656-0.992,2.313-1.984-1.324-1.32s-12.887,0.328-27.098,17.828
		c-9.91-3.637-17.176,0.656-20.148,1.645c-2.977,0.992-2.977,1.328-4.281,2.316c-1.305,0.992-0.329,0.656,2.32,1.648
		c2.644,0.993,5.281,4.629,5.281,17.184c0,12.559-1.031,77.352-1.359,88.883S455.559,315.307,449.941,318.607L449.941,318.607z
		 M449.941,318.607"/>
	<path fill="#ED1C24" d="M520.398,202.643c0-2.473-0.992-3.465-2.234-2.973c-1.238,0.492-10.16,4.953-12.387,5.945
		c-2.223,0.993-2.73,1.735-2.73,4.708v11.894c0,2.973,0.75,3.961,3.223,3.223c2.477-0.743,8.922-4.457,11.41-5.707
		c2.488-1.246,2.723-2.723,2.723-4.211L520.398,202.643z M520.398,202.643"/>
	<path fill="#ED1C24" d="M518.164,228.162c-1.238,0.5-10.16,4.957-12.383,5.945c-2.227,0.992-2.734,1.742-2.734,4.715v11.895
		c0,2.973,0.75,3.965,3.223,3.215c2.477-0.75,8.922-4.457,11.41-5.703c2.488-1.25,2.727-2.727,2.727-4.215v-12.852
		C520.398,228.662,519.406,227.67,518.164,228.162L518.164,228.162z M518.164,228.162"/>
	<path fill="#ED1C24" d="M699.71,126.987c-3.633-20.157-21.145-34.36-53.523-23.133c-20.137,6.988-36.008,23.461-42.285,52.867
		c-6.273,29.406-1.652,49.203,6.938,61.781c8.594,12.578,22.105,16.52,39.648,14.867c17.539-1.656,37.328-19.16,44.602-41.3
		C701.964,171.088,703.55,148.729,699.71,126.987L699.71,126.987z M668.656,165.643c-1.656,22.105-13.215,33.035-21.145,33.035
		c-7.926,0-15.527-10.574-12.227-34.027c3.328-23.618,11.895-30.071,20.813-30.071C666.039,134.58,670.316,143.502,668.656,165.643
		L668.656,165.643z M668.656,165.643"/>
	<g>
		<path fill="#ED1C24" d="M695.91,217.346c1.324,0.492,2.137,1.816,10.41,1.156c8.27-0.664,15.195-3.637,21.969-8.758
			c5.285,3.637,14.039,9.911,31.375,7.602c17.332-2.309,26.426-14.375,27.586-28.906c1.164-14.532-9.91-23.297-18.176-23.133
			c-8.262,0.164-12.883,4.137-14.531,6.117c-1.648,1.984-1.488,2.805,0,2.641c1.492-0.164,5.121-0.492,6.602,2.644
			c1.484,3.137,0.5,7.266-4.988,8.922c-5.492,1.652-10.902-0.664-11.23-5.285s-1.32-30.563-0.164-47.41
			c1.152-16.852,2.809-21.641,6.938-26.926c2.77-3.527,6.684-5.984,11.066-6.937c1.816-0.5,2.141-0.829,1.484-1.329
			c-0.656-0.496-6.938-3.8-14.867-3.464c-7.93,0.335-17.508,6.417-17.508,6.417c-11.73-8.921-25.605-4.957-28.25-2.64
			c-1.789,1.57-2.313,2.14-1.156,2.14s2.645-0.164,5.121,1.985c2.473,2.144,5.453,6.773,5.617,16.019
			c0.164,9.25-0.664,53.852-1.488,70.539c-0.828,16.684-11.895,24.614-14.203,26.098
			C695.203,216.319,694.558,216.846,695.91,217.346L695.91,217.346z M695.91,217.346"/>
		<path fill="#ED1C24" d="M918.589,234.857c-2.977,1.484-4.992,2.973-11.41,0.992c-6.418-1.984-13.387-5.949-24.285-26.27
			c-0.957-1.789-1.906-3.73-2.855-5.781c4.199-1.211,8.172-3.109,11.754-5.613c11.891-8.426,12.633-16.594,12.633-25.528
			c0.164-5.339-2.289-10.425-6.566-13.625c-1.984-1.613-1.734-1.734-1.605,0.868c0.129,2.605-1.488,20.445-24.285,18.461
			l-1.211-0.122c-5.156-16.777-9.121-33.675-11.176-41.015c-3.473-12.383-2.48-26.758,1.484-27.75
			c3.965-0.992,4.992-1.485,2.48-2.473c-2.508-0.992-3.473-3.965-12.391-3.472c-7.547,0.417-14.012,2.265-18.832,6.714
			c-1.176-2.582-2.672-5.004-4.457-7.207c-7.438-9.422-15.859-9.914-21.313-9.914s-9.414,2.973-10.902,3.465
			c-1.492,0.492-0.992,0.5,2.48,1.492c3.473,0.989,11.41,7.93,8.922,23.789c-0.813,5.161-1.617,11.907-2.461,19.25
			c-5.918-1.375-12.109-1.007-17.824,1.063c-13.379,4.957-16.352,15.859-16.352,15.859c0,2.973-0.992,0.992,3.965,0
			c4.953-0.992,11.891,0.5,19.324,6.938c1.711,1.484,4.215,3.758,7.285,6.476c-0.711,5.282-1.504,10.196-2.332,14.336
			c-3.465,17.352-6.418,25.282-14.367,28.746c-2.273,0.989-3.965,1.981,2.977,2.973c6.938,0.992,17.34,0.5,23.285-2.973
			c3.473,5.946,12.887,12.883,16.852,13.383s4.465,0.492,1.98-3.473c-2.387-3.82-6.617-15.48-6.031-34.941
			c6.367,4.5,13.051,8.559,19.418,11.176c1.848,0.762,3.688,1.426,5.512,2.012c7.129,24.3,18.539,45.839,36.117,53.476
			c19.324,8.43,27.25-4.953,31.215-10.402S921.562,233.369,918.589,234.857L918.589,234.857z M827.101,157.178
			c1.391-7.949,2.934-15.289,4.203-20.855c2.195,8.667,5.188,20.507,8.199,32.378C834.714,165.631,830.515,161.729,827.101,157.178
			L827.101,157.178z M827.101,157.178"/>
	</g>
	<path fill="#ED1C24" d="M636.632,369.775c0.004-1.355,1.105-2.449,2.461-2.445c1.336-0.008,2.43,1.07,2.438,2.41
		c0,0.008,0,0.016,0,0.02c-0.074,1.355-1.23,2.391-2.582,2.316c-1.25-0.066-2.25-1.066-2.316-2.316V369.775z M641.273,369.775
		c0.07-1.211-0.855-2.25-2.066-2.316c-1.211-0.07-2.25,0.855-2.32,2.066c-0.004,0.082-0.004,0.168,0,0.25
		c-0.066,1.211,0.859,2.25,2.07,2.316c1.211,0.07,2.246-0.855,2.316-2.066C641.277,369.943,641.277,369.857,641.273,369.775
		L641.273,369.775z M637.808,369.775c-0.012-0.715,0.559-1.309,1.277-1.32c0.012,0,0.023,0,0.035,0
		c0.379-0.016,0.746,0.125,1.012,0.395l-0.32,0.371c-0.188-0.195-0.445-0.305-0.715-0.309c-0.453,0.012-0.809,0.387-0.797,0.84
		c0,0.004,0,0.012,0,0.016c-0.02,0.457,0.336,0.844,0.793,0.863c0,0,0.004,0,0.008,0c0.273,0,0.531-0.117,0.711-0.32l0.32,0.32
		c-0.258,0.301-0.641,0.473-1.039,0.457c-0.711,0-1.285-0.574-1.285-1.285c0-0.02,0-0.043,0-0.063V369.775z M637.808,369.775"/>
	<path fill="#ED1C24" d="M645.468,363.521h-3.266v-1.676h8.34v1.676h-3.258v8.605h-1.816V363.521z M645.468,363.521"/>
	<path fill="#ED1C24" d="M651.871,361.846h4.578c1.086-0.059,2.148,0.309,2.965,1.027c0.566,0.598,0.875,1.395,0.855,2.219v0.035
		c0.043,1.492-0.988,2.801-2.453,3.109l2.773,3.891h-2.137l-2.527-3.563h-2.258v3.563h-1.805L651.871,361.846z M656.32,366.943
		c1.289,0,2.141-0.676,2.141-1.719c0-1.105-0.793-1.703-2.141-1.703h-2.633v3.453L656.32,366.943z M656.32,366.943"/>
	<path fill="#ED1C24" d="M665.539,361.775h1.676l4.527,10.352h-1.902l-1.047-2.48h-4.895l-1.055,2.48h-1.797L665.539,361.775z
		 M668.128,368.041l-1.777-4.105l-1.738,4.137L668.128,368.041z M668.128,368.041"/>
	<path fill="#ED1C24" d="M672.917,361.846h3.816c3.23,0,5.461,2.219,5.461,5.113s-2.23,5.141-5.461,5.141h-3.828L672.917,361.846z
		 M676.734,370.482c1.844,0.121,3.438-1.273,3.559-3.113c0.008-0.117,0.012-0.234,0.008-0.355c0.07-1.859-1.383-3.426-3.246-3.496
		c-0.105-0.004-0.215,0-0.32,0.004h-2.023v6.988L676.734,370.482z M676.734,370.482"/>
	<path fill="#ED1C24" d="M683.816,361.846h7.621v1.617h-5.82v2.676h5.156v1.609h-5.156v2.762h5.891v1.617h-7.691V361.846z
		 M683.816,361.846"/>
	<path fill="#ED1C24" d="M700.707,361.846h1.926l3.121,4.863l3.133-4.863h1.926v10.281H709v-7.371l-3.246,4.848h-0.055l-3.215-4.82
		v7.344h-1.777V361.846z M700.707,361.846"/>
	<path fill="#ED1C24" d="M716.507,361.775h1.676l4.52,10.352h-1.91l-1.039-2.48h-4.863l-1.055,2.48h-1.848L716.507,361.775z
		 M719.097,368.041l-1.781-4.105l-1.762,4.105H719.097z M719.097,368.041"/>
	<path fill="#ED1C24" d="M723.882,361.846h4.582c1.086-0.059,2.152,0.309,2.969,1.027c0.563,0.598,0.867,1.395,0.848,2.219v0.035
		c0.043,1.492-0.992,2.801-2.453,3.109l2.781,3.891h-2.141l-2.523-3.563h-2.262v3.563h-1.809L723.882,361.846z M728.332,366.943
		c1.289,0,2.137-0.676,2.137-1.719c0-1.105-0.789-1.703-2.137-1.703h-2.625v3.453L728.332,366.943z M728.332,366.943"/>
	<path fill="#ED1C24" d="M733.914,361.846h1.805v5.168l4.891-5.168h2.219l-4.281,4.422l4.465,5.859h-2.188l-3.48-4.629l-1.605,1.648
		v2.98h-1.805L733.914,361.846z M733.914,361.846"/>
	<path fill="#ED1C24" d="M751.605,361.846h4.582c1.086-0.059,2.152,0.309,2.969,1.027c0.563,0.598,0.867,1.395,0.848,2.219v0.035
		c0.043,1.492-0.988,2.801-2.453,3.109l2.773,3.891h-2.141l-2.523-3.563h-2.266v3.563h-1.789V361.846z M756.054,366.943
		c1.289,0,2.141-0.676,2.141-1.719c0-1.105-0.793-1.703-2.141-1.703h-2.633v3.453L756.054,366.943z M756.054,366.943"/>
	<path fill="#ED1C24" d="M761.644,361.846h7.621v1.617h-5.816v2.676h5.156v1.609h-5.156v2.762h5.891v1.617h-7.695V361.846z
		 M761.644,361.846"/>
	<path fill="#ED1C24" d="M770.445,367.014c-0.047-2.891,2.262-5.266,5.152-5.309c0.051-0.004,0.098-0.004,0.145-0.004
		c1.453-0.059,2.871,0.453,3.949,1.43l-1.141,1.367c-0.766-0.727-1.793-1.125-2.852-1.105c-1.918,0.078-3.406,1.691-3.332,3.609
		c0,0.008,0.004,0.016,0.004,0.02c-0.137,1.891,1.289,3.531,3.176,3.664c0.105,0.008,0.211,0.011,0.316,0.008
		c0.891,0.012,1.758-0.262,2.484-0.777v-1.922h-2.633v-1.57h4.379v4.313c-1.188,1.031-2.707,1.602-4.277,1.605
		c-2.813,0.152-5.215-2-5.367-4.813C770.437,367.357,770.437,367.186,770.445,367.014L770.445,367.014z M770.445,367.014"/>
	<path fill="#ED1C24" d="M781.824,361.846h3.836c3.23,0,5.461,2.219,5.461,5.113s-2.23,5.141-5.461,5.141h-3.836V361.846z
		 M785.66,370.482c1.844,0.121,3.438-1.273,3.563-3.113c0.008-0.117,0.008-0.234,0.004-0.355c0.07-1.859-1.383-3.426-3.242-3.496
		c-0.109-0.004-0.215,0-0.324,0.004h-2.023v6.988L785.66,370.482z M785.66,370.482"/>
	<g>
		<rect x="791.812" y="370.119" fill="#ED1C24" width="1.957" height="2.008"/>
		<path fill="#ED1C24" d="M842.304,256.576c-9.66-23.039-62.434-37.165-129.34-25.27c-66.906,11.895-106.289,31.945-106.289,31.945
			s-20.813-40.144-23.047-80.281c-2.23-40.141,16.352-113.668,50.551-122.625l0.234-0.07c10.141-1.676,15.609-0.395,20.109,5.402
			c-1.777,13.07,2.895,25.785,37.633,25.145c40.141-0.715,62.438-22.297,72.848-37.165c10.41-14.871,9.66-53.523-53.523-53.523
			c-33.918,0-73.402,14.359-107.301,40.301c-20.008,4.836-45.984,14.41-79.27,30.293c-49.805,23.785-83.254,35.652-133.797,40.136
			c-50.539,4.485-68.39-28.242-69.878-31.957c-1.493-3.718-5.204,2.973-2.235,22.297c2.977,19.321,21.559,32.707,29.735,37.91
			c8.179,5.208,14.121,11.145,8.921,15.61c-5.199,4.465-12.64,0.715-12.64-3.715c0-4.426-2.227-8.918-5.949-11.152
			c-3.723-2.231-14.118-0.711-14.118,11.894c0,12.606,21.555,27.504,74.328,14.867c52.774-12.636,101.84-43.109,134.547-64.668
			c8.16-5.339,16.613-10.222,25.32-14.617c-9.586,13.719-17.348,28.625-23.094,44.344c-20.773,57.125-4.535,112.785,25.375,152.055
			l-1.141,0.66c-62.441,36.672-106.05,52.523-156.109,68.883c-50.055,16.355-134.766,31.715-203.184,24.281
			c-9.746-1.059-18.781-2.398-27.097-3.922c5.054-17.258,8.648-40.391,8.793-70.906c0.136-29.398-0.258-53.766,0.336-73.109
			c41.257-5.386,77.773-19.602,100.761-44.175c28.742-30.723,25.77-62.114-1.652-81.61c-27.426-19.492-57.816-22.105-81.289-20.476
			c-23.477,1.625-64.035,13.504-84.57,21.488c-17.942,6.977-29.711,8.93-35.93,8.344c-5.426-0.508-7.395-3.75-7.91-2.852
			c-1.274,2.231-9.641,84.375-8.379,85.367c1.265,0.992,17.828-18.168,33.039-29.074c15.207-10.898,44.922-26.101,78.633-32.707
			c33.715-6.601,61.781,4.281,63.765,19.488c1.981,15.211-4.629,40.973-49.203,50.883c-1.918,0.43-3.773,0.801-5.582,1.137
			c0.508-4.289,1.328-8.531,2.445-12.699c5.704-20.317,15.86-30.727,18.583-33.453c2.722-2.723,3.964-3.715-0.243-3.223
			c-4.207,0.492-23.297,3.223-39.894,16.851c-10.192,8.481-18.321,19.165-23.781,31.247c-7.809-2.997-11.223-7.133-11.989-8.778
			c-1.644-3.637,0.86-11.453,8.594-12.23c3.301-0.328,2.313-3.965-10.574-7.594c-12.887-3.629-30.727,0.992-37.992,16.516
			c-6.418,13.648,4.277,35.187,43.496,39.324c-1.325,7.445-2.067,14.98-2.215,22.539c-0.922,39.348,0.074,78.895-2.141,108.148
			c-7.922-2.738-14.261-5.375-19.054-7.563c0-20.309-14.711-40.145-44.707-40.645C33.746,313.4,0.046,339.912,0.046,378.326
			c0,38.41,25.27,77.059,75.328,77.059c50.055,0,75.078-36.172,85.731-52.531c52.98,15.438,122.593,22.105,195.007,6.418
			c110.016-23.785,176.422-63.426,229.946-97.133l1.539-0.984c5.766,4.816,11.891,9.18,18.328,13.051
			c53.52,31.957,140.469,26.012,182.855,4.457C831.16,307.104,851.968,279.65,842.304,256.576L842.304,256.576z M670.8,35.639
			c5.934-1.988,25.309-8.922,39.66-2.484c14.355,6.441,13.371,17.828,6.926,23.296c-6.449,5.469-14.371,12.387-26.02,9.414
			c-1.988-0.507-5.199-3.964-5.199-3.964c4.457-9.414-3.473-21.309-19.824-20.317C660.382,41.939,664.855,37.619,670.8,35.639
			L670.8,35.639z M401.866,138.104c-3.039,10.625-10.254,14.754-16.168,15.047l-9.91,0.492l8.363-30.149l13.5-0.671
			C401.659,122.608,404.901,127.471,401.866,138.104L401.866,138.104z M428.405,123.53c-0.101,3.714-1.988,7.152-5.07,9.234
			c1.102,1.531,1.699,3.367,1.703,5.254c-0.215,4.215-0.629,7.179-0.629,7.179s-2.316,0.54-5.886,1.555
			c1.679-4.496,1.468-11.008-1.051-11.933l0.195-0.266c-2.246,0.363-4.195,0.465-4.195,0.465l-3.356,13.41l-5.707,0.914
			l7.133-30.164c0,0,7.777-1.231,11.363-1.645C426.496,117.119,428.589,120.158,428.405,123.53L428.405,123.53z M438.438,140.858
			l-6.098,1.773l4.766-29.121l6.097-1.563L438.438,140.858z M465,128.619l-5.762,2.141l-4.761-10.477l-2.09,13.961l-6.098,2.45
			l3.992-26.899l5.891-1.34l4.492,9.985l2.023-13.692l5.883-1.347L465,128.619z M491.769,115.865l-6.305,3.079l-6.211-6.954
			l-1.375,10.649l-5.707,2.766l3.168-24.586l5.512-1.707l-0.84,7.203l5.855-8.953l7.215-2.856l-9.512,14.07L491.769,115.865z
			 M77.605,424.658c-30.235,0-45.844-16.109-44.114-37.414c1.735-21.305,21.313-24.035,27.754-17.113
			c5.27,5.703,6.688,17.594-3.965,20.565c-1.683,0.47-2.23,1.489,0.993,3.474c3.222,1.98,13.132,8.422,28.519,2.473
			c8.723-3.371,14.484-8.664,18.113-16.5c5.703,3.172,12.016,6.27,18.789,9.234C116.121,409.607,100.484,424.658,77.605,424.658
			L77.605,424.658z M718.375,309.193c-52.527,0-80.773-18.832-80.773-18.832c0-2.48,31.219-20.813,71.855-30.727
			c40.637-9.91,72.852,3.469,73.844,15.859C784.292,287.889,763.476,309.193,718.375,309.193L718.375,309.193z M718.375,309.193"/>
	</g>
	<path fill="#ED1C24" d="M420.832,122.85c-2.738,0.351-5.047,0.894-5.047,0.894l-1.426,6.125c1.797,0.161,3.606-0.144,5.247-0.886
		C422.602,127.729,423.602,122.502,420.832,122.85L420.832,122.85z M420.832,122.85"/>
	<path fill="#ED1C24" d="M392.003,128.533l-3.164,0.157l-4.828,18.468l2.949-0.148c2.738-0.137,7.203-3.453,8.914-10.496
		C397.632,129.299,394.362,128.412,392.003,128.533L392.003,128.533z M392.003,128.533"/>
</g>
</svg>
